Coordinates
version=1
nRows=29
nColumns=22
inDegrees=yes

Units are S.I. units (second, meters, Newtons, ...)
If the header above contains a line with 'inDegrees', this indicates whether rotational values are in degrees (yes) or radians (no).

endheader
time	pelvis_tilt	pelvis_list	pelvis_rotation	pelvis_tx	pelvis_ty	pelvis_tz	hip_flexion_r	hip_adduction_r	hip_rotation_r	knee_angle_r	ankle_angle_r	subtalar_angle_r	hip_flexion_l	hip_adduction_l	hip_rotation_l	knee_angle_l	ankle_angle_l	subtalar_angle_l	lumbar_extension	lumbar_bending	lumbar_rotation
      0.01000000	     -6.73789737	     -4.97352796	     -0.75410108	     -1.03346070	      0.98592482	     -0.13358123	      9.28972953	      7.85733712	      1.48834720	    -13.87892982	     15.30646769	    -13.28243849	     11.45608010	     -5.85815700	    -10.28880473	    -18.54730976	     22.09576536	      1.57707515	      2.63829701	      5.11203147	      4.26799969
      0.02000000	     -6.74148982	     -4.97595224	     -0.75366612	     -1.03355402	      0.98593861	     -0.13357271	      9.29636244	      7.86061896	      1.48722808	    -13.87276101	     15.30646722	    -13.28157361	     11.46103272	     -5.86035049	    -10.28833525	    -18.53794506	     22.09691899	      1.57601719	      2.62654362	      5.10957450	      4.27048833
      0.03000000	     -6.74512696	     -4.97952908	     -0.75296847	     -1.03366605	      0.98595463	     -0.13357346	      9.30390308	      7.86418462	      1.48521047	    -13.86577784	     15.30550652	    -13.28044787	     11.46652518	     -5.86333055	    -10.28787386	    -18.52696373	     22.09692271	      1.57531861	      2.61252347	      5.10895651	      4.27496802
      0.04000000	     -6.74629970	     -4.99797619	     -0.76092544	     -1.03378674	      0.98598117	     -0.13358355	      9.31211789	      7.88281769	      1.47324658	    -13.86411918	     15.28345856	    -13.26759637	     11.46203668	     -5.87898552	    -10.27082822	    -18.50301027	     22.08469962	      1.56962876	      2.59492817	      5.12917989	      4.31539582
      0.05000000	     -6.74987759	     -4.99915708	     -0.76160638	     -1.03394667	      0.98599188	     -0.13363602	      9.32235463	      7.88024037	      1.47268931	    -13.85630770	     15.28186545	    -13.26608089	     11.47241466	     -5.87623938	    -10.27257543	    -18.49519849	     22.08402531	      1.56884752	      2.57369879	      5.13289994	      4.31741470
      0.06000000	     -6.75517318	     -4.98758512	     -0.76996313	     -1.03420851	      0.98598627	     -0.13372330	      9.36031217	      7.86218848	      1.47219744	    -13.88619941	     15.26019726	    -13.24989217	     11.50182141	     -5.85724414	    -10.26139831	    -18.51271020	     22.06616535	      1.55837059	      2.53717020	      5.12544306	      4.34855502
      0.07000000	     -6.92012568	     -4.93262044	     -0.78994589	     -1.03461418	      0.98569859	     -0.13389337	      9.61619000	      7.79253510	      1.46785772	    -13.99224620	     15.32780117	    -13.18455403	     11.72583758	     -5.78486359	    -10.23277396	    -18.55677750	     22.02485122	      1.48058108	      2.68442756	      5.08414960	      4.36717488
      0.08000000	     -7.13373372	     -4.87317804	     -0.80534298	     -1.03516828	      0.98529762	     -0.13415127	      9.95922630	      7.71120093	      1.42642070	    -14.14450019	     15.35796728	    -13.16961079	     12.03413980	     -5.70334959	    -10.18681600	    -18.64261322	     22.01843305	      1.43033628	      2.87078195	      5.04802558	      4.37525955
      0.09000000	     -7.43057405	     -4.77511573	     -0.82899642	     -1.03588257	      0.98472759	     -0.13450091	     10.43051687	      7.58409040	      1.39717284	    -14.35513682	     15.43721332	    -13.16220343	     12.45550035	     -5.57322398	    -10.12408057	    -18.75699316	     21.99104504	      1.36611830	      3.13870464	      4.98063748	      4.38335415
      0.10000000	     -7.80877688	     -4.65095582	     -0.85600837	     -1.03673911	      0.98399426	     -0.13493226	     11.02525170	      7.42405910	      1.36150862	    -14.61906177	     15.54342286	    -13.15168549	     12.98852519	     -5.40916551	    -10.04220767	    -18.90187212	     21.95546128	      1.28579477	      3.48941126	      4.89430667	      4.39136122
      0.11000000	     -8.22746762	     -4.51081210	     -0.88523162	     -1.03766251	      0.98317950	     -0.13540048	     11.68256386	      7.24531689	      1.32732764	    -14.91334574	     15.66376469	    -13.13703551	     13.57408425	     -5.22540570	     -9.95388063	    -19.05677946	     21.91263910	      1.19702016	      3.88229168	      4.79462133	      4.39639773
      0.12000000	     -8.63561502	     -4.37786934	     -0.91078713	     -1.03855475	      0.98237928	     -0.13585758	     12.32052091	      7.07421552	      1.28712838	    -15.19502728	     15.77817917	    -13.11720676	     14.14731884	     -5.05091815	     -9.86665609	    -19.21347089	     21.87800387	      1.10858730	      4.26791245	      4.69978193	      4.40594141
      0.13000000	     -8.98469515	     -4.26337879	     -0.93316216	     -1.03932297	      0.98169562	     -0.13625325	     12.86646251	      6.92772315	      1.25861286	    -15.43674649	     15.87686034	    -13.09735608	     14.63588659	     -4.90086731	     -9.79369757	    -19.34452653	     21.84250020	      1.03114923	      4.59668471	      4.61732032	      4.41283231
      0.14000000	     -9.24528525	     -4.17474124	     -0.94894081	     -1.03991448	      0.98118423	     -0.13657299	     13.27119456	      6.81268777	      1.23864496	    -15.60935790	     15.96146885	    -13.08295826	     15.00284929	     -4.78431193	     -9.73697610	    -19.44520913	     21.80337089	      0.97210085	      4.83861512	      4.55000376	      4.42902467
      0.15000000	     -9.37575345	     -4.11114889	     -0.96963528	     -1.04031141	      0.98090693	     -0.13680588	     13.50596772	      6.72818497	      1.19291587	    -15.74370250	     16.00787120	    -13.07861168	     15.19059586	     -4.70266223	     -9.72531623	    -19.49525050	     21.82662253	      0.93775904	      4.94208420	      4.50200122	      4.44475581
      0.16000000	     -9.53619564	     -4.10076643	     -0.97355841	     -1.04065246	      0.98061853	     -0.13696937	     13.72610447	      6.71048422	      1.22303399	    -15.79870340	     16.01330178	    -13.06296395	     15.42334351	     -4.68176469	     -9.67358712	    -19.57105150	     21.77600307	      0.89845016	      5.09164336	      4.50365762	      4.42729994
      0.17000000	     -9.54058801	     -4.09423059	     -0.97941723	     -1.04081108	      0.98059203	     -0.13710931	     13.75034167	      6.69384181	      1.21841825	    -15.81685278	     16.00789390	    -13.06097563	     15.45287968	     -4.66752358	     -9.66465582	    -19.60382910	     21.79393588	      0.89447509	      5.06528375	      4.50391534	      4.43425178
      0.18000000	     -9.54666462	     -4.09700050	     -0.98513073	     -1.04089503	      0.98058508	     -0.13720122	     13.75936959	      6.69082805	      1.21705236	    -15.81108142	     16.00872831	    -13.06073380	     15.46271367	     -4.66574185	     -9.66486677	    -19.60027002	     21.79470016	      0.89403605	      5.04941378	      4.50504943	      4.43225950
      0.19000000	     -9.61530560	     -4.11976939	     -0.97902826	     -1.04103970	      0.98045896	     -0.13730741	     13.85383837	      6.70697590	      1.19613523	    -15.83531303	     16.01502672	    -13.03311557	     15.58176692	     -4.68775373	     -9.64759606	    -19.66862475	     21.81217115	      0.86564636	      5.10239879	      4.53045382	      4.40092364
      0.20000000	     -9.62151433	     -4.12286921	     -0.98790688	     -1.04107246	      0.98045905	     -0.13738977	     13.85897963	      6.70551127	      1.19596302	    -15.82863573	     16.01450655	    -13.03248828	     15.58790779	     -4.68641754	     -9.64612089	    -19.66556328	     21.81207866	      0.86569677	      5.08778056	      4.52862262	      4.39767146
      0.21000000	     -9.62813692	     -4.12667382	     -0.99733580	     -1.04109306	      0.98045928	     -0.13748198	     13.86319561	      6.70420225	      1.19665808	    -15.82119214	     16.01359261	    -13.03136895	     15.59456609	     -4.68500496	     -9.64496666	    -19.66418327	     21.81204406	      0.86557245	      5.07188161	      4.52797700	      4.39268456
      0.22000000	     -9.63525926	     -4.13137627	     -1.00724405	     -1.04110475	      0.98045784	     -0.13758117	     13.86674447	      6.70327472	      1.19777378	    -15.81264936	     16.01225592	    -13.02979519	     15.60161047	     -4.68419232	     -9.64441916	    -19.66351033	     21.81222694	      0.86525937	      5.05501726	      4.52764705	      4.38618789
      0.23000000	     -9.63753534	     -4.14711419	     -1.01076976	     -1.04111619	      0.98046126	     -0.13769384	     13.85424878	      6.71418255	      1.22520328	    -15.78490527	     15.98873535	    -13.01086512	     15.61812801	     -4.69699556	     -9.64837980	    -19.68965400	     21.81540824	      0.85947186	      5.03054277	      4.54177302	      4.34657836
      0.24000000	     -9.64664042	     -4.15375454	     -1.02099450	     -1.04111366	      0.98045468	     -0.13780024	     13.85870716	      6.71430913	      1.22151529	    -15.77524360	     15.98833338	    -13.00945889	     15.62410012	     -4.69763256	     -9.64838901	    -19.68389763	     21.81669799	      0.85910254	      5.01431946	      4.54052971	      4.34509710
      0.25000000	     -9.65595000	     -4.15990954	     -1.03264705	     -1.04110357	      0.98044696	     -0.13791912	     13.86279377	      6.71290597	      1.21843896	    -15.76529621	     15.98666736	    -13.00781652	     15.62964925	     -4.69717296	     -9.64912045	    -19.67911572	     21.81841070	      0.85840280	      4.99924102	      4.54169900	      4.34244739
      0.26000000	     -9.66567803	     -4.16579876	     -1.04458264	     -1.04108887	      0.98043780	     -0.13804268	     13.86700600	      6.71101108	      1.21603551	    -15.75511485	     15.98382795	    -13.00593953	     15.63493769	     -4.69629236	     -9.65074172	    -19.67420153	     21.82061377	      0.85733034	      4.98526454	      4.54340680	      4.33929470
      0.27000000	     -9.68700111	     -4.18205800	     -1.06319547	     -1.04103740	      0.98042024	     -0.13815032	     13.86981612	      6.72277938	      1.22909714	    -15.72202019	     15.93945419	    -12.98059137	     15.64495721	     -4.71052918	     -9.67397630	    -19.66017711	     21.84175810	      0.83914488	      4.99306825	      4.55839095	      4.33495246
      0.28000000	     -9.69612957	     -4.18658092	     -1.07531441	     -1.04101779	      0.98040839	     -0.13827971	     13.87470471	      6.71914021	      1.22849382	    -15.71532517	     15.93970300	    -12.97954953	     15.65011767	     -4.70795132	     -9.67369492	    -19.65770800	     21.84206321	      0.83835282	      4.97908547	      4.56065438	      4.33294549
      0.29000000	     -9.70621025	     -4.19102440	     -1.08761962	     -1.04099522	      0.98039535	     -0.13840803	     13.88022525	      6.71625314	      1.22898256	    -15.70817064	     15.93956497	    -12.97820872	     15.65498288	     -4.70483952	     -9.67456399	    -19.65390263	     21.84273968	      0.83739380	      4.96634406	      4.56268079	      4.33016233
